<svg id="svg" version="1.1" width="512" height="512" xmlns="http://www.w3.org/2000/svg"><path d="M5.413 5.545 C 1.711 9.337,-0.000 11.900,-0.000 13.654 C -0.000 15.956,0.339 15.727,3.308 11.418 C 5.128 8.777,8.777 5.128,11.418 3.308 C 15.876 0.236,16.026 -0.000,13.523 -0.000 C 11.570 -0.000,9.335 1.528,5.413 5.545 M500.582 3.308 C 503.223 5.128,506.872 8.777,508.692 11.418 C 511.661 15.727,512.000 15.956,512.000 13.654 C 512.000 9.964,502.132 -0.000,498.477 -0.000 C 495.974 -0.000,496.124 0.236,500.582 3.308 M324.298 119.050 C 313.298 124.252,306.372 125.744,288.000 126.869 C 276.294 127.586,270.297 128.465,263.500 130.460 C 245.238 135.820,223.389 148.094,203.053 164.417 C 197.858 168.588,193.285 172.000,192.893 172.000 C 192.501 172.000,189.234 168.440,185.634 164.088 C 180.013 157.294,178.271 155.868,173.294 153.990 C 161.828 149.662,149.875 152.418,142.596 161.068 C 137.783 166.789,124.994 193.790,123.635 201.102 C 122.350 208.010,127.402 225.646,134.158 237.842 L 137.429 243.747 134.221 247.401 C 127.391 255.180,125.031 263.909,128.829 267.345 C 133.370 271.454,142.086 266.796,148.187 257.000 L 149.744 254.500 170.122 254.500 C 189.554 254.500,190.680 254.394,194.367 252.215 L 198.235 249.929 197.648 252.266 C 196.342 257.468,190.000 296.103,190.000 298.854 C 190.000 300.769,191.234 303.288,193.500 306.000 C 196.975 310.159,197.000 310.260,197.000 319.948 C 197.000 340.042,194.948 369.882,193.060 377.252 C 190.267 388.155,185.270 397.908,181.268 400.269 C 179.434 401.352,176.615 404.153,175.004 406.494 C 172.369 410.324,170.842 411.254,159.788 415.761 C 153.029 418.517,142.550 422.480,136.500 424.568 C 130.450 426.656,123.095 429.879,120.156 431.730 C 114.034 435.585,105.000 443.732,105.000 445.398 C 105.000 446.016,102.924 449.616,100.386 453.399 C 95.044 461.362,91.380 469.711,85.859 486.500 C 82.373 497.101,79.057 509.091,79.015 511.250 C 79.007 511.663,88.787 511.964,100.750 511.921 C 114.517 511.871,121.582 511.521,120.000 510.967 C 117.009 509.920,90.900 506.000,86.917 506.000 C 83.235 506.000,82.866 505.170,84.333 500.199 C 86.187 493.922,86.772 493.621,94.656 494.887 C 98.420 495.492,107.227 496.456,114.227 497.030 C 121.227 497.603,128.684 498.683,130.798 499.429 C 137.097 501.651,144.699 505.797,148.345 508.998 C 151.776 512.010,154.778 512.779,156.550 511.099 C 158.723 509.038,188.755 505.506,217.889 503.885 C 248.839 502.163,325.430 505.019,331.206 508.111 C 332.193 508.638,333.000 509.763,333.000 510.609 C 333.000 513.452,336.267 511.625,336.587 508.602 C 336.992 504.789,337.321 504.547,345.484 502.054 C 352.073 500.041,352.540 500.018,353.734 501.651 C 355.745 504.401,355.219 507.245,352.250 509.676 L 349.500 511.928 353.877 511.964 L 358.254 512.000 357.714 507.250 C 357.417 504.637,356.656 499.800,356.023 496.500 C 355.391 493.200,353.974 485.775,352.874 480.000 C 350.048 465.161,346.982 451.278,345.340 445.895 C 343.403 439.543,338.663 432.374,334.879 430.072 C 333.139 429.015,323.903 425.579,314.353 422.438 L 296.991 416.726 293.572 411.968 C 291.406 408.952,288.203 406.164,284.827 404.355 C 280.446 402.007,279.011 400.523,276.748 396.000 C 272.383 387.278,270.730 377.374,271.492 364.500 C 272.400 349.148,271.911 350.001,279.817 349.996 C 294.631 349.987,315.239 345.252,324.313 339.771 C 332.555 334.794,347.010 322.969,350.147 318.638 C 353.427 314.110,356.000 306.344,356.000 300.970 C 356.000 298.953,354.431 291.048,352.514 283.402 C 349.955 273.198,349.024 267.309,349.014 261.263 L 349.000 253.025 353.250 250.383 C 355.587 248.930,360.650 244.750,364.500 241.096 C 368.350 237.441,374.539 231.818,378.254 228.600 C 386.454 221.496,392.355 212.795,395.143 203.695 C 396.822 198.217,397.150 195.000,396.827 187.195 C 396.479 178.792,396.030 176.767,393.463 172.000 C 389.376 164.413,385.972 162.758,375.500 163.269 C 365.712 163.746,358.400 167.046,354.538 172.730 C 351.355 177.413,351.179 175.202,354.013 166.161 C 355.106 162.674,355.999 157.724,355.997 155.161 C 355.995 150.952,355.268 149.494,348.497 140.123 C 344.374 134.416,341.000 129.338,341.000 128.839 C 341.000 128.341,342.649 126.960,344.664 125.771 C 349.581 122.869,347.721 122.516,340.538 124.987 C 337.312 126.097,334.452 126.785,334.182 126.516 C 333.606 125.940,340.193 123.027,344.500 121.953 L 347.500 121.205 343.960 121.102 C 342.013 121.046,336.006 122.380,330.610 124.067 C 325.214 125.753,320.633 126.966,320.428 126.762 C 320.224 126.557,323.419 124.226,327.528 121.580 C 334.551 117.060,336.632 114.888,333.750 115.086 C 333.063 115.134,328.809 116.917,324.298 119.050 M319.000 125.401 C 319.000 126.637,310.976 130.384,308.000 130.538 C 306.075 130.638,301.393 131.076,297.596 131.513 C 292.969 132.046,290.899 131.972,291.321 131.289 C 292.351 129.624,278.510 130.997,268.181 133.585 C 263.056 134.869,255.741 137.425,251.927 139.266 C 248.112 141.106,244.572 142.353,244.060 142.037 C 242.819 141.270,259.690 134.186,268.500 131.774 C 273.274 130.467,279.952 129.723,289.500 129.437 C 302.707 129.040,311.602 127.807,315.000 125.902 C 316.574 125.019,319.000 124.716,319.000 125.401 M325.000 129.216 C 323.625 129.811,320.371 131.356,317.768 132.649 C 311.194 135.916,309.677 135.591,315.188 132.096 C 319.935 129.085,322.095 128.266,325.500 128.184 C 327.166 128.143,327.082 128.316,325.000 129.216 M332.000 130.000 C 331.175 130.533,329.375 130.945,328.000 130.914 C 325.710 130.864,325.668 130.787,327.500 130.000 C 328.600 129.527,330.400 129.116,331.500 129.086 C 333.151 129.040,333.238 129.200,332.000 130.000 M341.354 135.521 C 343.578 139.041,344.039 140.640,343.445 142.769 C 342.693 145.462,342.673 145.447,341.999 141.753 C 341.352 138.205,339.358 135.062,336.000 132.298 C 334.702 131.230,334.769 131.060,336.500 131.034 C 337.801 131.014,339.497 132.582,341.354 135.521 M245.586 148.136 C 248.010 151.976,249.986 153.142,250.015 150.750 C 250.027 149.783,250.205 149.774,250.800 150.711 C 251.396 151.649,253.032 151.572,258.035 150.373 C 266.257 148.402,277.315 149.115,292.977 152.628 C 308.010 156.000,311.329 155.631,321.427 149.471 C 328.041 145.436,330.277 144.591,334.927 144.371 C 339.872 144.136,340.050 144.189,336.500 144.845 C 334.300 145.252,331.150 146.299,329.500 147.172 C 327.850 148.045,322.988 150.613,318.696 152.880 C 314.404 155.146,309.679 156.998,308.196 156.996 C 306.713 156.994,298.975 155.645,291.000 154.000 C 273.553 150.400,263.927 150.158,256.000 153.121 C 248.606 155.884,245.836 155.971,244.546 153.479 C 243.971 152.368,242.488 150.048,241.250 148.325 C 238.449 144.423,238.395 143.029,241.073 143.729 C 242.213 144.028,244.244 146.010,245.586 148.136 M347.142 147.000 C 347.679 147.000,347.828 146.438,347.474 145.750 C 347.120 145.063,348.218 145.970,349.915 147.766 C 352.470 150.471,352.999 151.845,352.994 155.766 C 352.989 160.517,351.246 168.579,350.405 167.739 C 350.159 167.492,350.505 164.095,351.174 160.190 C 352.286 153.705,352.233 152.915,350.562 151.069 C 349.556 149.957,348.381 149.264,347.952 149.530 C 347.522 149.795,346.920 149.447,346.614 148.756 C 346.308 148.065,346.382 149.750,346.778 152.500 C 347.175 155.250,347.392 161.285,347.261 165.911 C 347.127 170.634,347.478 174.871,348.061 175.574 C 348.790 176.451,348.610 178.719,347.461 183.163 C 346.559 186.648,345.699 189.625,345.550 189.778 C 345.400 189.931,345.484 182.731,345.736 173.778 C 345.994 164.653,345.757 155.621,345.198 153.224 C 344.295 149.353,344.784 142.853,345.759 145.776 C 345.983 146.449,346.606 147.000,347.142 147.000 M240.219 152.062 C 242.265 155.053,243.953 157.840,243.969 158.257 C 243.986 158.673,242.762 160.021,241.250 161.252 C 239.738 162.483,235.732 166.261,232.348 169.647 C 228.112 173.887,223.389 177.254,217.181 180.460 C 205.216 186.640,202.567 189.115,203.429 193.307 C 204.845 200.197,206.964 216.735,206.982 221.027 C 206.992 223.518,207.622 226.444,208.383 227.530 C 209.144 228.616,213.981 232.123,219.133 235.324 C 224.285 238.524,230.300 242.716,232.500 244.639 L 236.500 248.136 232.500 246.067 C 228.640 244.070,211.223 232.932,205.908 229.062 C 203.410 227.242,203.293 226.693,202.663 213.837 C 202.303 206.502,201.721 197.926,201.368 194.779 C 200.757 189.332,200.870 188.925,203.738 186.279 C 205.394 184.751,210.951 181.309,216.087 178.631 C 225.118 173.923,237.902 163.139,237.225 160.800 C 237.074 160.278,237.460 160.166,238.082 160.551 C 239.849 161.643,238.208 157.111,235.167 152.500 C 232.762 148.852,232.499 148.702,232.189 150.794 C 231.932 152.532,231.391 152.941,229.955 152.486 C 227.798 151.801,221.270 155.961,208.000 166.477 C 199.244 173.416,197.591 174.844,199.750 173.601 C 200.447 173.200,201.000 173.398,201.000 174.048 C 201.000 174.689,200.380 174.976,199.622 174.685 C 198.864 174.394,197.739 174.661,197.122 175.278 C 196.299 176.101,196.000 176.102,196.000 175.283 C 196.000 172.644,232.947 145.513,235.468 146.301 C 236.036 146.479,238.174 149.071,240.219 152.062 M340.455 149.951 C 342.920 152.674,344.015 163.799,343.364 179.500 C 342.687 195.833,341.138 201.720,336.132 206.982 C 331.468 211.885,328.682 212.115,319.171 208.383 C 311.473 205.363,309.470 203.670,308.661 199.500 C 308.341 197.850,308.339 197.108,308.656 197.850 C 309.692 200.272,319.204 203.978,324.500 204.022 C 329.115 204.060,329.350 204.177,327.559 205.532 C 325.052 207.428,327.267 207.430,330.931 205.536 C 334.490 203.695,338.804 198.630,339.636 195.314 C 340.508 191.840,335.120 170.120,332.814 167.814 C 331.816 166.816,329.802 166.000,328.338 166.000 C 325.703 166.000,317.021 170.427,316.978 171.792 C 316.966 172.181,316.086 173.625,315.024 175.000 L 313.093 177.500 313.297 168.551 L 313.500 159.602 323.500 153.801 C 334.154 147.621,337.632 146.831,340.455 149.951 M167.500 155.101 C 169.700 155.700,172.985 156.885,174.801 157.733 C 178.395 159.413,189.000 172.193,189.000 174.844 C 189.000 175.746,187.237 173.787,185.083 170.492 C 180.356 163.261,177.594 160.643,173.101 159.139 C 165.660 156.646,154.438 158.920,148.516 164.120 C 144.546 167.606,142.164 167.206,144.615 163.465 C 147.207 159.509,156.667 154.252,161.500 154.082 C 162.600 154.043,165.300 154.502,167.500 155.101 M293.796 157.361 C 299.459 158.720,304.730 160.361,305.508 161.007 C 306.602 161.915,306.804 164.032,306.397 170.341 C 305.966 177.039,306.091 178.150,307.099 176.547 C 308.916 173.656,309.631 160.000,307.965 160.000 C 307.251 160.000,306.956 159.711,307.309 159.357 C 307.663 159.004,308.638 159.284,309.476 159.980 C 311.763 161.878,311.438 172.400,308.838 180.645 C 307.648 184.415,306.411 190.568,306.088 194.318 L 305.500 201.136 297.326 201.402 L 289.151 201.668 291.673 198.362 C 293.919 195.417,294.118 194.477,293.487 189.778 C 293.098 186.875,291.722 181.144,290.430 177.043 C 289.138 172.941,288.263 169.403,288.487 169.180 C 288.710 168.957,289.815 170.288,290.942 172.137 C 292.070 173.987,292.994 174.813,292.996 173.973 C 293.007 169.647,284.896 163.972,278.790 164.033 C 273.562 164.085,266.087 167.136,258.182 172.443 C 249.554 178.237,243.419 184.759,239.431 192.376 L 236.545 197.887 239.023 200.539 C 242.119 203.853,248.541 207.605,252.539 208.435 L 255.578 209.066 251.418 213.533 C 247.696 217.530,246.790 218.000,242.809 218.000 C 236.980 218.000,228.221 213.586,225.301 209.177 C 220.888 202.512,221.238 193.279,226.290 183.143 C 231.061 173.570,247.114 159.166,257.000 155.589 C 263.340 153.295,280.247 154.109,293.796 157.361 M165.868 162.075 C 157.114 162.839,153.802 164.712,143.225 174.881 C 138.426 179.494,135.955 182.983,132.725 189.707 C 128.944 197.575,128.509 199.236,128.584 205.500 C 128.686 214.090,132.424 226.077,137.549 234.250 C 140.875 239.554,141.439 240.000,144.827 239.996 L 148.500 239.993 145.437 238.125 C 143.306 236.825,141.104 233.646,138.205 227.686 C 133.380 217.766,132.015 212.662,132.136 205.000 L 132.224 199.500 133.088 204.500 C 135.648 219.297,140.392 232.434,142.225 229.801 C 142.823 228.942,142.913 229.273,142.490 230.775 C 142.138 232.026,142.221 232.956,142.675 232.840 C 143.129 232.724,145.514 234.538,147.977 236.870 C 150.651 239.404,151.658 240.855,150.477 240.474 C 148.608 239.872,148.597 239.917,150.279 241.300 C 151.811 242.560,151.848 242.844,150.541 243.346 C 149.707 243.666,149.131 243.438,149.262 242.838 C 149.406 242.180,147.563 241.699,144.613 241.624 L 139.726 241.500 134.928 232.562 C 129.461 222.376,125.445 208.175,126.277 201.972 C 126.826 197.880,140.941 167.402,141.079 170.011 C 141.133 171.035,141.315 171.110,141.662 170.250 C 141.940 169.563,143.250 169.000,144.575 169.000 C 145.899 169.000,149.022 167.443,151.514 165.541 C 154.007 163.639,157.723 161.802,159.773 161.459 C 161.823 161.117,163.865 160.751,164.312 160.648 C 164.758 160.544,167.008 160.673,169.312 160.934 C 172.901 161.342,172.409 161.505,165.868 162.075 M173.768 165.548 C 175.806 166.399,178.500 168.061,179.756 169.240 C 182.807 172.107,187.703 179.870,188.502 183.109 C 189.104 185.549,188.878 185.753,185.001 186.273 C 181.753 186.709,179.766 186.264,175.829 184.221 C 161.184 176.623,146.003 183.176,144.455 197.763 C 144.010 201.963,144.087 202.217,145.138 200.000 C 145.790 198.625,147.261 195.526,148.407 193.114 C 149.553 190.701,152.033 187.551,153.917 186.114 C 158.480 182.634,166.260 182.549,173.751 185.899 L 179.001 188.247 174.453 192.250 C 162.660 202.631,160.800 220.349,170.600 228.953 C 175.402 233.170,176.888 232.776,172.978 228.323 C 168.145 222.817,166.685 218.513,167.253 211.438 C 167.809 204.509,170.589 199.324,176.559 194.083 C 184.377 187.218,191.491 186.705,193.856 192.836 C 195.152 196.194,197.747 213.827,198.594 225.031 C 199.220 233.310,199.158 233.658,196.494 236.825 C 191.536 242.717,186.816 244.436,175.500 244.470 C 165.980 244.499,165.197 244.335,159.174 241.070 C 146.551 234.226,141.903 225.367,141.223 206.857 C 140.760 194.243,141.952 187.975,146.533 178.935 C 149.153 173.765,157.859 165.364,161.286 164.701 C 166.037 163.781,170.220 164.065,173.768 165.548 M375.500 166.468 C 367.129 168.009,361.726 170.341,357.002 174.454 L 353.504 177.500 356.502 174.158 C 361.596 168.480,369.337 165.169,377.500 165.176 C 382.470 165.180,382.459 165.188,375.500 166.468 M281.893 170.977 C 280.664 173.164,278.420 176.139,276.908 177.588 L 274.158 180.222 268.142 176.915 C 264.832 175.095,262.377 173.199,262.685 172.701 C 264.090 170.427,273.749 167.019,278.814 167.010 L 284.128 167.000 281.893 170.977 M330.005 170.750 C 330.012 173.101,326.781 182.000,325.921 182.000 C 325.018 182.000,319.000 175.826,319.000 174.899 C 319.000 174.502,320.385 173.013,322.077 171.589 C 325.679 168.558,329.997 168.101,330.005 170.750 M379.244 169.664 C 378.553 169.943,378.242 170.582,378.553 171.085 C 378.864 171.588,377.077 172.000,374.582 172.000 C 372.087 172.000,367.110 173.105,363.523 174.455 C 359.935 175.806,357.000 176.715,357.000 176.476 C 357.000 175.754,365.226 171.757,369.500 170.402 C 373.237 169.217,381.998 168.554,379.244 169.664 M160.000 170.902 C 160.825 171.365,163.284 172.065,165.465 172.458 C 170.613 173.384,174.209 175.290,179.033 179.649 C 184.695 184.764,186.050 183.264,180.722 177.781 C 177.465 174.431,174.741 172.703,170.924 171.570 C 165.274 169.892,157.334 169.407,160.000 170.902 M386.310 171.436 C 387.306 172.191,388.972 174.989,390.014 177.654 C 392.028 182.812,392.643 181.809,391.032 175.993 C 390.171 172.884,390.219 172.704,391.473 174.360 C 393.060 176.456,395.000 184.563,395.000 189.102 C 395.000 194.560,391.997 205.429,389.087 210.504 C 383.371 220.473,373.539 229.366,375.549 222.750 C 375.925 221.512,377.236 219.150,378.464 217.500 C 379.691 215.850,382.110 212.025,383.838 209.000 C 385.567 205.975,386.985 204.080,386.991 204.790 C 387.002 206.366,383.488 213.419,380.658 217.500 C 378.956 219.955,378.904 220.238,380.373 219.058 C 386.197 214.378,391.006 201.583,390.994 190.794 C 390.989 185.187,389.034 176.607,388.261 178.795 C 387.993 179.553,386.658 178.309,385.042 175.795 C 381.566 170.386,382.173 168.299,386.310 171.436 M288.338 178.250 C 292.329 192.415,292.633 200.214,288.957 194.170 C 287.974 192.554,285.557 190.001,283.585 188.497 C 281.613 186.993,280.000 185.136,280.000 184.370 C 280.000 183.261,285.986 173.088,286.679 173.018 C 286.778 173.008,287.524 175.363,288.338 178.250 M380.066 175.698 C 383.790 177.898,386.000 183.557,386.000 190.895 C 386.000 198.771,384.174 203.453,377.073 213.782 C 369.297 225.093,360.309 234.951,354.197 238.874 C 347.452 243.202,346.837 243.015,347.198 236.755 L 347.500 231.510 352.601 230.703 C 356.057 230.155,358.797 228.931,361.101 226.906 L 364.500 223.916 361.166 225.527 C 359.333 226.413,356.039 227.219,353.847 227.319 C 350.085 227.490,349.788 227.290,348.549 223.753 C 347.828 221.692,345.628 218.223,343.660 216.045 L 340.082 212.085 341.616 206.793 C 344.716 196.094,346.812 192.975,352.717 190.272 C 355.697 188.908,359.865 187.560,361.980 187.276 C 365.484 186.806,365.965 187.032,367.412 189.830 C 369.654 194.165,369.457 204.397,367.029 209.746 C 365.968 212.082,363.707 216.020,362.002 218.496 C 359.680 221.872,359.289 223.000,360.442 223.000 C 361.288 223.000,363.587 220.579,365.551 217.620 C 371.649 208.437,373.449 198.806,370.574 190.750 C 369.269 187.094,369.295 187.000,371.611 187.000 C 376.065 187.000,381.874 190.228,382.345 192.966 C 382.614 194.524,382.727 194.152,382.641 192.000 C 382.517 188.912,381.975 188.235,378.038 186.250 C 375.394 184.917,371.753 184.000,369.102 184.000 C 363.333 184.000,352.004 186.795,349.750 188.774 C 347.428 190.812,347.527 189.473,349.950 186.070 C 353.128 181.607,368.384 174.251,374.846 174.067 C 376.136 174.030,378.485 174.764,380.066 175.698 M200.798 180.628 C 200.468 183.272,200.399 183.202,199.921 179.751 C 199.623 177.601,199.776 176.376,200.279 176.879 C 200.762 177.362,200.995 179.049,200.798 180.628 M336.080 185.613 C 337.136 190.445,337.998 194.646,337.995 194.949 C 337.990 195.553,333.809 190.731,331.458 187.409 C 330.142 185.550,330.168 184.805,331.691 180.695 C 332.634 178.152,333.575 176.241,333.782 176.449 C 333.990 176.657,335.024 180.780,336.080 185.613 M197.267 186.500 L 197.828 192.500 196.491 188.500 C 195.034 184.142,194.504 174.923,195.916 178.500 C 196.351 179.600,196.958 183.200,197.267 186.500 M264.162 181.104 C 266.952 182.894,269.000 184.957,269.000 185.977 C 269.000 187.974,254.710 202.000,252.675 202.000 C 249.980 202.000,241.827 198.713,241.334 197.428 C 239.844 193.545,252.492 178.000,257.140 178.000 C 258.342 178.000,261.502 179.397,264.162 181.104 M368.768 179.399 C 362.719 180.699,360.226 182.000,363.784 182.000 C 367.534 182.000,376.000 179.863,376.000 178.917 C 376.000 177.832,376.087 177.827,368.768 179.399 M140.738 185.250 C 138.577 191.834,137.774 208.671,139.176 218.000 L 139.853 222.500 138.396 218.000 C 134.949 207.354,135.922 190.853,140.520 181.960 C 142.904 177.352,142.975 178.436,140.738 185.250 M222.469 184.061 C 220.283 188.288,219.362 201.537,220.925 206.274 C 223.447 213.916,229.536 218.378,239.697 220.032 C 246.358 221.116,247.597 222.039,248.442 226.543 C 249.261 230.906,252.019 232.753,259.912 234.221 L 266.055 235.363 260.777 237.026 C 257.875 237.940,252.400 240.108,248.612 241.844 C 244.823 243.580,240.913 245.000,239.922 245.000 C 238.932 245.000,234.707 242.550,230.534 239.556 C 226.360 236.562,220.283 232.494,217.028 230.517 C 213.773 228.540,210.892 226.152,210.626 225.211 C 210.360 224.270,209.620 218.550,208.982 212.500 C 208.344 206.450,207.406 199.569,206.898 197.209 C 206.291 194.393,206.330 192.252,207.011 190.979 C 207.991 189.149,223.049 179.716,223.798 180.464 C 223.990 180.657,223.392 182.275,222.469 184.061 M318.567 182.619 C 322.623 185.713,322.924 188.348,319.750 193.008 C 316.408 197.916,314.693 198.684,311.601 196.658 C 308.692 194.752,308.253 191.515,310.145 185.899 C 311.458 182.003,312.831 180.000,314.189 180.000 C 314.709 180.000,316.678 181.178,318.567 182.619 M281.589 194.431 C 284.132 196.867,286.019 199.455,285.783 200.181 C 284.864 202.996,279.496 204.424,268.500 204.777 L 257.500 205.130 260.602 203.170 C 262.308 202.092,265.881 198.687,268.543 195.605 C 271.204 192.522,274.188 190.000,275.173 190.000 C 276.159 190.000,279.046 191.994,281.589 194.431 M332.667 198.426 C 331.603 201.198,322.004 203.433,320.639 201.226 C 320.376 200.800,321.746 198.267,323.683 195.597 L 327.205 190.744 330.244 193.782 C 332.174 195.712,333.058 197.407,332.667 198.426 M295.924 197.636 C 293.694 200.060,293.671 200.183,295.632 199.163 C 296.805 198.554,298.029 197.368,298.351 196.528 C 299.169 194.396,298.713 194.604,295.924 197.636 M254.500 205.000 C 262.079 207.102,276.221 207.657,281.757 206.070 C 286.010 204.850,285.848 205.410,281.025 208.602 C 278.663 210.165,276.378 210.975,275.395 210.598 C 274.484 210.249,269.237 209.287,263.734 208.460 C 258.231 207.633,251.877 206.105,249.614 205.063 C 244.281 202.607,245.803 202.588,254.500 205.000 M297.500 205.493 C 294.200 206.114,289.391 207.570,286.814 208.727 C 283.690 210.130,282.293 210.401,282.623 209.541 C 283.742 206.624,295.814 202.913,301.000 203.892 C 302.830 204.237,301.892 204.666,297.500 205.493 M312.101 208.136 C 318.073 210.133,317.164 210.536,306.718 210.518 C 301.098 210.508,293.800 210.850,290.500 211.278 C 283.439 212.193,284.782 210.822,293.154 208.570 C 299.721 206.803,307.576 206.624,312.101 208.136 M271.500 212.085 C 273.700 212.675,278.779 214.760,282.786 216.716 C 288.586 219.548,290.520 220.074,292.270 219.293 C 294.222 218.422,293.883 218.171,289.234 217.056 C 283.124 215.590,282.384 214.031,287.750 213.929 C 289.813 213.890,294.914 213.546,299.087 213.165 L 306.674 212.473 306.508 221.926 C 306.416 227.125,306.683 230.506,307.100 229.439 C 307.518 228.373,307.891 224.211,307.930 220.191 C 307.974 215.589,308.370 213.111,309.000 213.500 C 310.853 214.645,310.145 227.559,307.920 233.204 C 306.482 236.850,305.983 239.875,306.304 242.991 C 307.917 258.646,309.308 268.708,310.052 270.096 C 311.384 272.587,309.672 277.455,307.343 277.799 C 306.231 277.963,302.982 277.175,300.123 276.049 C 293.977 273.626,293.382 273.551,294.909 275.390 C 295.544 276.155,298.395 277.784,301.245 279.010 C 307.292 281.611,316.602 281.415,321.562 278.583 L 324.500 276.905 318.500 277.476 L 312.500 278.047 312.832 269.843 C 313.095 263.325,312.600 259.512,310.423 251.299 L 307.683 240.960 310.341 233.109 C 312.103 227.906,313.000 223.140,313.000 218.982 L 313.000 212.705 323.616 213.392 C 331.048 213.872,335.370 214.658,338.022 216.011 C 347.515 220.854,348.793 230.099,340.452 233.585 C 338.345 234.465,333.365 235.016,327.282 235.042 L 317.500 235.083 323.500 237.157 C 326.800 238.297,330.258 239.966,331.186 240.865 C 335.303 244.859,344.987 265.844,349.015 279.500 C 352.685 291.942,353.100 294.390,352.748 301.500 C 352.275 311.045,350.986 313.813,343.733 320.863 C 330.259 333.959,316.880 341.828,303.500 344.526 C 282.859 348.688,263.736 348.492,251.719 343.996 C 244.451 341.277,230.979 332.210,228.380 328.288 C 227.209 326.521,224.305 320.221,221.927 314.288 C 219.549 308.355,216.343 301.092,214.802 298.148 C 209.737 288.475,210.943 283.907,222.686 268.287 C 232.439 255.313,238.515 249.776,248.073 245.149 C 255.394 241.606,257.585 240.999,263.073 240.996 C 268.202 240.993,270.711 240.388,275.500 238.000 C 278.800 236.354,282.175 234.999,283.000 234.988 C 284.333 234.971,284.333 234.862,283.000 234.000 C 282.175 233.467,279.434 233.024,276.909 233.015 C 269.268 232.990,255.643 230.896,253.250 229.380 C 249.032 226.707,250.866 216.308,256.217 212.561 C 258.796 210.754,265.737 210.538,271.500 212.085 M193.722 221.456 C 191.319 226.496,185.914 232.075,180.117 235.500 C 174.475 238.834,173.535 240.280,177.808 239.055 C 182.779 237.629,186.566 235.223,190.243 231.153 C 194.274 226.691,195.428 224.735,196.381 220.750 C 197.302 216.895,195.694 217.322,193.722 221.456 M223.114 221.582 C 220.956 224.326,220.328 227.000,221.843 227.000 C 222.982 227.000,226.565 220.232,225.820 219.487 C 225.494 219.161,224.277 220.104,223.114 221.582 M257.107 219.894 C 254.297 220.652,252.530 224.384,254.309 225.804 C 255.727 226.935,267.230 229.000,272.114 229.000 C 274.012 229.000,277.974 229.625,280.920 230.389 C 286.810 231.917,289.766 234.801,293.755 242.914 L 296.010 247.500 295.591 243.178 C 295.049 237.603,291.013 231.558,286.189 229.096 C 280.454 226.171,270.309 223.805,262.807 223.644 C 255.299 223.482,254.995 221.500,262.479 221.500 C 264.887 221.500,266.327 221.223,265.679 220.885 C 263.424 219.708,259.485 219.253,257.107 219.894 M323.485 221.025 C 323.136 221.588,323.222 221.985,323.676 221.906 C 324.129 221.828,326.637 221.816,329.250 221.882 C 334.731 222.018,338.000 224.513,338.000 228.559 C 338.000 230.010,338.433 230.851,339.000 230.500 C 340.832 229.368,340.031 224.940,337.545 222.455 C 335.536 220.445,334.096 220.000,329.604 220.000 C 326.587 220.000,323.833 220.461,323.485 221.025 M233.517 227.967 C 230.857 233.216,230.441 235.000,231.877 235.000 C 232.360 235.000,234.042 232.542,235.614 229.539 C 237.348 226.227,239.266 223.919,240.487 223.675 C 241.673 223.438,241.171 223.216,239.267 223.136 C 236.346 223.013,235.790 223.481,233.517 227.967 M320.379 225.381 C 314.410 228.085,309.162 237.950,310.661 243.649 C 311.350 246.270,311.470 246.097,312.154 241.500 C 313.178 234.614,316.275 232.000,323.407 232.000 C 332.132 232.000,337.114 229.421,335.000 225.999 C 333.818 224.087,324.139 223.678,320.379 225.381 M365.420 235.913 C 356.173 244.936,350.619 248.811,349.509 247.014 C 349.176 246.476,351.288 244.493,354.202 242.607 C 357.116 240.721,362.186 236.438,365.469 233.089 C 368.751 229.740,372.126 227.012,372.969 227.027 C 373.811 227.041,370.414 231.040,365.420 235.913 M217.584 240.004 C 221.963 243.286,222.975 244.726,224.894 250.405 C 226.118 254.030,226.841 257.448,226.500 258.001 C 226.158 258.553,222.913 262.937,219.287 267.744 C 211.239 278.416,210.000 281.247,210.000 288.972 C 210.000 294.027,210.712 296.510,214.381 304.254 C 219.326 314.692,223.527 325.806,222.802 326.532 C 221.091 328.242,193.960 303.610,194.063 300.441 C 194.124 298.597,194.168 298.602,194.956 300.547 C 195.785 302.593,207.612 313.579,215.876 319.978 C 220.070 323.227,220.221 323.266,219.528 320.934 C 219.130 319.595,216.998 314.450,214.789 309.500 C 207.493 293.145,206.576 288.493,209.154 280.899 C 210.434 277.130,218.996 264.219,222.047 261.457 C 224.718 259.040,224.536 257.561,220.541 249.226 C 217.032 241.903,215.654 240.616,205.092 234.797 C 203.391 233.860,202.000 232.409,202.000 231.572 C 202.000 229.807,209.110 233.654,217.584 240.004 M342.277 239.750 C 341.962 241.813,341.704 245.637,341.703 248.250 C 341.703 250.863,341.527 253.000,341.312 253.000 C 341.098 253.000,339.357 249.738,337.445 245.750 L 333.968 238.500 338.234 237.348 C 340.580 236.715,342.579 236.152,342.675 236.098 C 342.771 236.044,342.592 237.688,342.277 239.750 M165.187 246.562 C 172.531 248.517,179.284 248.349,187.466 246.010 C 194.395 244.028,194.416 244.028,192.443 246.001 C 188.219 250.226,175.249 250.784,161.666 247.327 C 156.284 245.956,155.684 245.976,153.910 247.581 C 150.988 250.226,150.432 248.477,153.288 245.621 C 154.663 244.246,155.498 242.804,155.144 242.417 C 154.790 242.030,155.709 242.486,157.187 243.430 C 158.665 244.375,162.265 245.784,165.187 246.562 M204.673 262.750 C 204.324 274.163,203.739 287.646,203.374 292.713 L 202.709 301.927 208.936 307.681 C 212.361 310.846,215.628 314.305,216.197 315.368 C 217.176 317.198,217.078 317.190,214.366 315.230 C 212.790 314.091,209.073 310.898,206.106 308.135 L 200.711 303.112 201.417 297.306 C 202.546 288.014,203.943 263.387,203.973 252.250 C 203.988 246.613,204.294 242.000,204.653 242.000 C 205.013 242.000,205.021 251.338,204.673 262.750 M147.000 244.500 C 146.315 245.325,144.798 245.963,143.628 245.919 C 141.833 245.850,141.970 245.622,144.500 244.464 C 148.350 242.701,148.491 242.703,147.000 244.500 M345.912 256.000 C 345.930 259.609,345.638 260.984,345.064 260.000 C 343.980 258.143,343.617 254.022,343.964 247.500 L 344.230 242.500 345.057 246.500 C 345.512 248.700,345.897 252.975,345.912 256.000 M326.830 249.189 C 330.247 255.514,332.904 257.099,330.518 251.389 C 328.839 247.371,326.257 244.000,324.859 244.000 C 324.401 244.000,325.289 246.335,326.830 249.189 M197.473 275.903 C 194.148 295.488,192.989 300.939,193.006 296.917 C 193.009 296.138,193.911 290.325,195.009 284.000 C 198.082 266.312,199.971 253.852,200.162 250.000 L 200.336 246.500 200.738 250.403 C 200.958 252.549,199.489 264.024,197.473 275.903 M230.342 248.325 C 230.704 247.963,231.000 248.218,231.000 248.892 C 231.000 249.566,231.450 249.840,232.000 249.500 C 234.037 248.241,232.918 251.711,230.650 253.682 L 228.301 255.725 228.331 253.113 C 228.348 251.676,227.971 249.600,227.494 248.500 C 226.751 246.789,226.847 246.679,228.155 247.741 C 228.996 248.424,229.980 248.687,230.342 248.325 M275.221 251.173 C 271.942 255.439,271.725 256.703,274.451 255.657 C 275.928 255.090,279.989 249.300,279.996 247.750 C 280.005 245.993,278.216 247.276,275.221 251.173 M284.235 249.217 C 283.096 250.589,280.000 257.353,280.000 258.468 C 280.000 258.761,280.475 259.000,281.056 259.000 C 281.637 259.000,283.018 256.954,284.124 254.453 C 286.244 249.659,286.306 246.721,284.235 249.217 M143.960 250.452 C 146.258 253.221,142.100 260.863,136.806 263.600 C 130.508 266.857,130.597 259.611,136.936 252.946 C 141.028 248.645,142.134 248.252,143.960 250.452 M176.500 251.116 C 187.844 251.233,188.799 251.363,184.000 252.142 C 177.776 253.152,157.738 252.292,154.579 250.879 C 153.122 250.227,154.146 250.104,158.000 250.466 C 161.025 250.750,169.350 251.043,176.500 251.116 M245.546 256.041 C 235.331 262.414,232.145 265.544,224.921 276.309 C 218.927 285.239,217.347 288.856,218.326 291.406 C 218.623 292.182,221.934 294.806,225.684 297.237 C 229.433 299.668,233.118 302.409,233.872 303.328 C 234.696 304.331,236.697 305.000,238.872 305.000 C 240.868 305.000,246.100 305.700,250.500 306.556 C 256.024 307.630,265.462 308.172,281.000 308.306 C 312.974 308.582,341.140 305.759,347.411 301.650 C 352.743 298.156,350.389 286.258,343.526 282.016 C 339.577 279.575,333.816 279.425,327.876 281.608 C 325.151 282.609,319.915 283.270,314.000 283.358 C 305.970 283.478,303.185 283.059,296.000 280.649 C 285.202 277.028,272.160 270.554,262.254 263.899 C 257.996 261.039,253.160 258.115,251.506 257.403 L 248.500 256.106 251.750 255.428 C 254.020 254.955,255.000 254.185,255.000 252.875 C 255.000 251.844,254.662 251.018,254.250 251.040 C 253.838 251.061,249.921 253.312,245.546 256.041 M258.132 264.271 C 268.796 271.071,268.942 271.186,266.000 270.506 C 264.625 270.188,260.238 269.655,256.250 269.320 C 252.262 268.985,249.000 268.326,249.000 267.856 C 249.000 267.385,249.675 267.000,250.500 267.000 C 251.325 267.000,252.000 266.550,252.000 266.000 C 252.000 264.179,249.818 264.962,247.821 267.500 C 245.574 270.357,240.599 270.890,237.479 268.608 C 235.827 267.401,235.760 266.995,236.966 265.540 C 239.103 262.966,245.160 260.091,248.500 260.066 C 250.344 260.052,254.055 261.672,258.132 264.271 M242.360 273.835 C 243.956 275.264,244.161 276.637,243.802 283.512 C 243.467 289.923,242.813 292.572,240.533 296.762 C 238.965 299.643,237.327 302.000,236.892 302.000 C 234.637 302.000,226.031 286.699,226.010 282.651 C 225.997 280.256,228.965 274.000,230.114 274.000 C 230.601 274.000,231.000 274.952,231.000 276.115 C 231.000 277.955,237.813 285.520,238.685 284.648 C 239.473 283.860,236.674 278.000,235.509 278.000 C 234.049 278.000,233.000 275.829,233.000 272.807 C 233.000 271.005,233.420 270.855,236.750 271.473 C 238.813 271.856,241.337 272.919,242.360 273.835 M251.710 281.110 C 252.774 282.174,251.902 274.268,250.750 272.404 C 249.939 271.093,261.137 271.808,266.000 273.377 C 268.641 274.230,269.763 275.320,270.572 277.820 C 271.516 280.738,271.801 280.944,272.960 279.548 C 274.064 278.218,273.986 277.642,272.480 275.978 C 270.714 274.027,270.735 274.012,273.762 275.067 C 277.607 276.407,278.208 277.951,277.363 284.318 C 276.561 290.367,273.959 293.191,267.532 294.991 C 261.532 296.671,257.015 295.643,253.237 291.740 C 249.227 287.596,247.000 282.227,247.000 276.699 C 247.000 270.616,248.172 270.081,249.556 275.532 C 250.197 278.056,251.166 280.566,251.710 281.110 M292.338 282.001 C 297.190 283.651,303.612 285.289,306.608 285.642 C 312.772 286.366,313.353 286.797,311.526 289.295 C 309.211 292.462,291.702 294.186,285.128 291.895 C 280.606 290.318,278.700 285.551,280.607 280.582 C 281.425 278.449,282.155 278.537,292.338 282.001 M339.453 283.161 C 343.035 284.793,342.699 287.560,338.750 288.942 C 333.862 290.652,317.452 291.540,316.587 290.141 C 316.162 289.453,316.600 288.972,317.691 288.930 C 319.299 288.867,319.278 288.769,317.500 288.044 C 315.704 287.312,315.806 287.157,318.500 286.518 C 320.150 286.127,324.425 284.986,328.000 283.983 C 335.978 281.744,336.294 281.721,339.453 283.161 M226.376 293.830 C 226.265 294.011,225.009 293.397,223.587 292.465 C 220.761 290.613,220.404 288.983,222.121 285.774 C 223.151 283.850,223.379 284.080,224.910 288.589 C 225.828 291.290,226.487 293.648,226.376 293.830 M249.192 290.985 C 251.747 295.477,256.611 297.992,262.750 297.996 C 268.449 298.000,269.152 298.910,266.443 302.777 C 264.625 305.373,259.013 305.739,249.702 303.869 C 244.730 302.871,244.183 302.527,245.035 300.935 C 245.566 299.943,245.982 298.539,245.960 297.816 C 245.938 297.092,245.228 297.777,244.382 299.338 C 241.910 303.900,241.530 301.520,243.864 296.095 C 245.039 293.364,246.000 290.425,246.000 289.565 C 246.000 287.130,247.336 287.724,249.192 290.985 M347.330 295.845 C 346.393 299.430,344.995 297.160,345.082 292.191 L 345.163 287.500 346.526 290.606 C 347.275 292.314,347.637 294.672,347.330 295.845 M342.191 294.565 C 343.193 298.243,342.717 299.548,339.806 301.098 C 337.733 302.203,337.634 302.164,338.833 300.712 C 339.565 299.823,339.966 298.287,339.722 297.298 C 339.383 295.919,338.994 296.249,338.056 298.709 C 337.383 300.474,335.943 302.201,334.855 302.546 C 330.912 303.798,317.443 304.677,315.142 303.832 C 313.047 303.064,312.860 302.551,313.470 299.234 C 313.847 297.180,314.559 295.084,315.053 294.575 C 315.547 294.066,318.549 293.728,321.725 293.823 C 324.901 293.919,330.200 293.384,333.500 292.635 C 340.989 290.936,341.216 290.987,342.191 294.565 M298.193 294.789 L 311.000 294.327 311.000 298.008 C 311.000 304.746,309.169 305.453,290.749 305.821 C 281.922 305.997,273.643 305.876,272.350 305.552 C 267.923 304.441,269.679 298.649,275.678 294.573 C 279.130 292.227,279.454 292.184,282.347 293.679 C 284.805 294.950,287.839 295.163,298.193 294.789 M219.607 300.000 C 222.013 304.978,227.185 311.154,233.262 316.307 C 238.436 320.695,243.000 322.997,243.000 321.220 C 243.000 320.717,241.988 319.797,240.750 319.175 C 238.968 318.279,240.038 318.173,245.898 318.666 C 251.106 319.103,253.097 318.966,252.625 318.202 C 252.255 317.604,249.826 316.823,247.227 316.466 C 236.866 315.044,235.492 314.298,226.541 305.234 C 219.579 298.185,218.242 297.175,219.607 300.000 M343.500 309.074 C 338.581 312.786,337.815 314.400,341.664 312.941 C 344.683 311.797,349.000 308.199,349.000 306.826 C 349.000 305.398,347.627 305.960,343.500 309.074 M291.000 314.206 C 281.925 314.705,274.050 315.587,273.500 316.168 C 272.799 316.907,279.677 317.019,296.483 316.545 C 309.674 316.172,320.632 315.702,320.833 315.500 C 321.035 315.298,320.904 314.653,320.541 314.067 C 319.800 312.868,314.916 312.891,291.000 314.206 M207.693 320.000 L 214.298 325.000 207.732 325.000 C 203.415 325.000,200.994 324.572,200.662 323.750 C 200.385 323.063,200.122 323.512,200.079 324.750 C 199.996 327.122,200.175 327.162,212.165 327.421 C 214.309 327.467,217.111 328.447,218.918 329.782 C 220.617 331.038,223.693 333.233,225.753 334.662 L 229.500 337.259 223.500 336.574 C 205.951 334.572,202.349 334.079,200.750 333.462 C 199.280 332.894,199.000 331.470,199.000 324.560 C 199.000 317.275,199.407 315.000,200.711 315.000 C 200.919 315.000,204.061 317.250,207.693 320.000 M300.070 319.191 C 300.109 319.911,300.527 321.400,301.000 322.500 C 301.767 324.286,301.867 324.212,301.930 321.809 C 301.968 320.329,301.550 318.840,301.000 318.500 C 300.450 318.160,300.032 318.471,300.070 319.191 M207.500 331.000 C 207.160 331.550,207.097 332.000,207.359 332.000 C 207.622 332.000,208.473 332.244,209.252 332.543 C 210.095 332.867,210.667 332.463,210.667 331.543 C 210.667 329.823,208.461 329.445,207.500 331.000 M213.000 337.993 C 216.575 338.539,221.652 338.988,224.282 338.992 C 228.859 339.000,236.000 341.172,236.000 342.557 C 236.000 342.920,234.791 342.913,233.314 342.543 C 231.837 342.172,227.680 341.656,224.076 341.396 C 219.107 341.038,217.804 341.204,218.683 342.083 C 219.320 342.720,224.040 343.469,229.171 343.747 C 241.994 344.441,243.900 345.933,232.000 345.962 C 217.559 345.997,210.511 344.545,204.813 340.363 C 202.166 338.420,200.000 336.623,200.000 336.370 C 200.000 336.116,201.463 336.155,203.250 336.456 C 205.037 336.756,209.425 337.448,213.000 337.993 M210.249 350.000 C 222.820 360.792,224.735 364.699,234.609 399.691 C 238.850 414.722,238.462 414.327,248.463 413.806 C 252.043 413.620,254.503 413.011,254.754 412.250 C 254.981 411.563,254.454 411.000,253.583 411.000 C 252.713 411.000,252.000 410.550,252.000 410.000 C 252.000 409.450,250.088 408.968,247.750 408.930 C 239.301 408.790,239.192 407.143,247.628 407.070 C 252.868 407.025,256.101 406.556,256.730 405.750 C 257.965 404.166,260.554 390.840,262.494 376.086 C 264.042 364.310,265.722 358.832,264.514 369.500 C 262.405 388.117,257.862 413.470,256.366 414.967 C 256.074 415.260,252.159 415.645,247.667 415.823 C 241.970 416.048,239.004 415.746,237.860 414.823 C 236.957 414.095,234.787 408.550,233.036 402.500 C 221.628 363.083,222.446 364.709,207.750 352.255 C 202.089 347.458,200.000 345.045,200.000 343.305 C 200.000 341.001,200.063 340.981,201.921 342.711 C 202.978 343.695,206.726 346.975,210.249 350.000 M249.000 345.745 C 253.675 348.023,256.926 349.912,256.225 349.943 C 254.929 350.001,242.738 344.007,240.000 341.966 C 237.960 340.445,239.129 340.936,249.000 345.745 M222.042 347.970 C 226.144 348.503,233.368 348.952,238.095 348.969 C 245.482 348.996,246.952 349.290,248.555 351.061 C 250.069 352.734,250.165 353.280,249.065 353.960 C 248.004 354.616,248.121 354.921,249.605 355.366 C 251.749 356.009,227.593 355.260,224.500 354.588 C 223.400 354.349,221.965 354.119,221.311 354.077 C 220.657 354.034,217.971 352.138,215.342 349.863 C 212.713 347.588,211.467 346.013,212.573 346.364 C 213.679 346.715,217.940 347.438,222.042 347.970 M204.979 353.981 L 209.291 357.961 208.633 365.043 C 206.436 388.683,194.936 418.000,187.860 418.000 C 186.055 418.000,179.000 412.448,179.000 411.027 C 179.000 410.606,180.742 408.065,182.871 405.381 C 191.624 394.344,196.670 379.974,198.051 362.142 C 198.547 355.739,198.963 350.387,198.976 350.250 C 199.075 349.208,201.321 350.603,204.979 353.981 M227.281 352.009 C 228.260 352.628,233.210 353.339,238.281 353.591 C 245.628 353.955,246.992 353.820,245.000 352.928 C 241.475 351.350,224.875 350.489,227.281 352.009 M202.493 355.989 C 202.829 356.532,202.474 356.736,201.705 356.440 C 200.599 356.016,200.174 357.745,199.673 364.702 C 199.325 369.541,198.344 376.200,197.494 379.500 C 195.687 386.514,189.401 400.104,185.013 406.481 L 181.943 410.943 183.972 412.972 C 187.252 416.252,189.710 415.527,193.025 410.299 C 198.232 402.089,203.795 383.941,206.196 367.330 C 207.294 359.741,207.241 358.924,205.539 357.043 C 203.663 354.970,201.374 354.177,202.493 355.989 M232.500 357.675 C 236.900 358.471,242.975 358.887,246.000 358.598 C 258.809 357.377,258.294 357.321,259.865 360.093 C 260.673 361.519,261.048 363.432,260.699 364.343 C 259.417 367.682,227.363 365.588,226.197 362.090 C 225.983 361.450,224.614 359.503,223.154 357.764 C 220.891 355.067,220.795 354.721,222.500 355.415 C 223.600 355.862,228.100 356.879,232.500 357.675 M272.859 394.646 C 274.787 399.545,277.677 404.624,280.108 407.386 C 282.332 409.912,284.002 412.749,283.821 413.692 C 283.417 415.789,275.755 421.772,272.392 422.616 C 270.642 423.056,268.790 422.433,265.911 420.438 C 259.906 416.277,259.728 415.510,262.016 403.656 C 264.485 390.863,267.902 367.121,268.155 361.000 C 268.257 358.525,268.636 363.250,268.997 371.500 C 269.594 385.184,269.933 387.215,272.859 394.646 M217.410 380.056 L 218.113 396.038 210.930 409.632 C 205.499 419.911,204.065 423.422,205.047 424.029 C 206.881 425.163,219.468 426.315,221.668 425.550 C 224.504 424.565,231.001 415.819,230.989 413.004 C 230.983 411.627,228.724 403.300,225.971 394.500 C 221.341 379.708,218.940 369.795,220.276 371.000 C 221.367 371.983,233.000 411.165,233.000 413.855 C 233.000 415.741,231.409 418.386,227.920 422.300 C 222.075 428.859,221.067 429.065,207.513 426.471 C 198.357 424.719,188.768 420.526,191.752 419.579 C 195.706 418.324,202.605 403.841,206.951 387.673 C 208.011 383.728,208.906 381.455,208.939 382.622 C 209.078 387.475,203.821 404.655,200.067 411.613 C 197.869 415.688,196.315 419.657,196.613 420.434 C 197.236 422.058,200.000 423.379,200.000 422.052 C 200.000 421.565,199.559 421.017,199.020 420.833 C 198.481 420.650,199.896 417.575,202.165 414.000 C 204.434 410.425,206.872 406.119,207.583 404.431 C 209.001 401.064,211.766 378.701,212.176 367.280 L 212.436 360.061 214.572 362.068 C 216.514 363.892,216.772 365.527,217.410 380.056 M235.177 361.869 C 233.385 363.006,241.192 364.023,250.890 363.916 L 258.500 363.832 252.500 362.480 C 245.642 360.935,237.125 360.635,235.177 361.869 M246.148 368.355 C 259.418 369.493,259.500 369.515,259.500 372.000 L 259.500 374.500 247.500 374.456 C 232.478 374.400,230.834 373.972,228.731 369.562 L 227.062 366.062 229.929 366.636 C 231.506 366.951,238.804 367.725,246.148 368.355 M238.500 372.038 C 240.435 372.833,250.759 373.373,249.917 372.635 C 249.688 372.435,246.575 372.034,243.000 371.744 C 239.183 371.435,237.326 371.556,238.500 372.038 M249.659 377.565 C 257.449 378.103,258.891 378.477,259.306 380.062 C 260.208 383.512,257.642 384.243,246.034 383.846 C 234.405 383.448,232.926 382.868,231.506 378.142 C 230.814 375.843,230.917 375.799,235.648 376.358 C 238.317 376.674,244.622 377.217,249.659 377.565 M243.776 381.733 C 246.128 381.945,249.728 381.942,251.776 381.727 C 253.824 381.512,251.900 381.339,247.500 381.343 C 243.100 381.346,241.424 381.522,243.776 381.733 M257.893 390.000 C 256.556 398.278,256.788 398.109,247.247 397.787 C 239.949 397.541,238.543 397.207,237.374 395.442 C 236.027 393.408,236.112 393.389,244.970 393.813 C 249.898 394.048,254.732 393.874,255.714 393.426 C 256.858 392.904,253.940 392.382,247.597 391.975 C 238.915 391.418,237.465 391.058,235.847 389.059 C 234.831 387.805,234.000 386.491,233.999 386.139 C 233.999 385.788,239.538 385.500,246.309 385.500 L 258.620 385.500 257.893 390.000 M265.104 397.750 C 263.878 404.762,262.740 411.211,262.576 412.079 C 262.216 413.981,263.646 416.003,266.973 418.296 C 270.621 420.811,273.191 420.396,277.451 416.607 L 281.265 413.214 278.744 409.857 C 275.185 405.116,271.457 397.380,269.517 390.707 C 268.605 387.568,267.740 385.000,267.595 385.000 C 267.451 385.000,266.329 390.738,265.104 397.750 M243.425 389.121 C 243.126 389.604,245.459 390.000,248.608 390.000 C 251.757 390.000,254.146 389.835,253.917 389.633 C 252.928 388.763,243.918 388.323,243.425 389.121 M247.500 401.500 C 253.944 401.500,255.500 401.792,255.500 403.000 C 255.500 404.173,253.870 404.565,248.022 404.798 C 241.846 405.045,240.322 404.794,239.272 403.357 C 238.572 402.401,238.007 401.141,238.015 400.559 C 238.025 399.867,238.285 399.846,238.765 400.500 C 239.169 401.050,243.100 401.500,247.500 401.500 M243.776 402.733 C 246.128 402.945,249.728 402.942,251.776 402.727 C 253.824 402.512,251.900 402.339,247.500 402.343 C 243.100 402.346,241.424 402.522,243.776 402.733 M167.940 417.479 C 167.148 418.265,160.425 420.919,153.000 423.376 C 145.575 425.832,136.246 429.002,132.269 430.421 C 124.669 433.131,121.123 433.746,124.500 431.767 C 127.441 430.044,168.424 415.179,168.940 415.648 C 169.183 415.868,168.733 416.692,167.940 417.479 M184.000 421.723 C 184.000 422.483,180.249 420.003,178.918 418.363 C 178.040 417.283,178.739 417.525,180.750 418.997 C 182.537 420.305,184.000 421.532,184.000 421.723 M257.500 421.000 C 259.576 422.650,262.001 423.971,262.888 423.937 C 264.072 423.890,263.960 423.654,262.465 423.048 C 260.384 422.205,257.201 419.000,258.444 419.000 C 258.823 419.000,260.702 420.196,262.619 421.659 C 265.190 423.619,265.763 424.534,264.802 425.143 C 261.854 427.013,258.488 425.986,255.321 422.250 C 252.652 419.102,251.851 418.677,250.329 419.604 C 249.331 420.212,248.107 422.132,247.608 423.873 C 247.039 425.855,245.916 427.203,244.600 427.482 C 240.883 428.270,226.979 428.562,227.244 427.846 C 227.385 427.465,229.437 425.094,231.805 422.577 L 236.110 418.000 244.918 418.000 C 253.198 418.000,253.951 418.179,257.500 421.000 M286.199 419.250 C 285.624 419.938,283.657 421.351,281.827 422.392 C 278.230 424.438,278.805 423.618,283.385 420.171 C 286.608 417.745,287.778 417.362,286.199 419.250 M239.000 420.732 C 232.579 421.913,233.404 426.000,240.063 426.000 C 244.368 426.000,245.152 425.298,244.335 422.174 C 243.761 419.976,243.497 419.905,239.000 420.732 M252.726 423.322 C 252.517 423.948,253.188 425.144,254.216 425.980 C 255.975 427.410,255.884 427.504,252.684 427.569 C 249.751 427.629,249.344 427.353,249.730 425.569 C 250.594 421.578,250.995 420.879,252.046 421.528 C 252.629 421.889,252.935 422.696,252.726 423.322 M309.500 424.000 C 310.761 424.542,310.945 424.859,310.000 424.859 C 309.175 424.859,307.600 424.473,306.500 424.000 C 305.239 423.458,305.055 423.141,306.000 423.141 C 306.825 423.141,308.400 423.527,309.500 424.000 M183.146 430.363 C 187.191 432.212,191.625 434.176,193.000 434.726 C 194.996 435.526,193.792 435.761,187.031 435.892 C 180.343 436.022,173.718 437.294,155.531 441.941 C 142.864 445.177,130.130 448.010,127.234 448.236 C 122.260 448.624,121.830 448.467,119.484 445.390 C 118.118 443.599,117.000 441.923,117.000 441.665 C 117.000 441.407,119.813 440.898,123.250 440.533 C 126.688 440.168,134.450 438.357,140.500 436.509 C 166.061 428.702,171.612 427.120,173.646 427.062 C 174.827 427.028,179.102 428.513,183.146 430.363 M303.000 428.454 C 309.864 429.784,329.064 435.936,333.250 438.146 C 334.212 438.655,335.000 439.955,335.000 441.035 C 335.000 443.498,334.025 443.493,321.500 440.956 C 303.540 437.319,293.687 436.059,282.060 435.915 C 271.870 435.789,270.887 435.626,273.060 434.422 C 274.402 433.679,276.175 433.041,277.000 433.004 C 277.825 432.967,281.189 431.601,284.475 429.969 C 291.306 426.574,292.710 426.460,303.000 428.454 M337.012 435.023 C 338.718 438.211,336.388 437.353,333.918 433.884 C 331.705 430.777,331.705 430.772,333.827 431.907 C 334.997 432.533,336.430 433.936,337.012 435.023 M274.762 441.687 C 273.806 441.937,272.006 441.946,270.762 441.707 C 269.518 441.468,270.300 441.263,272.500 441.252 C 274.700 441.241,275.718 441.437,274.762 441.687 M116.867 446.531 C 119.202 449.631,120.964 451.000,122.617 451.000 C 123.928 451.000,125.000 451.502,125.000 452.117 C 125.000 453.409,122.967 453.008,114.528 450.049 C 111.244 448.898,107.964 448.183,107.240 448.461 C 106.516 448.739,107.119 447.399,108.581 445.483 C 110.042 443.567,111.746 442.014,112.369 442.031 C 112.991 442.048,115.015 444.073,116.867 446.531 M284.500 445.016 C 314.551 447.389,326.688 449.336,331.750 452.597 C 334.636 454.456,335.085 460.655,332.250 459.503 C 326.286 457.079,322.618 456.593,305.500 455.955 C 295.050 455.565,272.100 454.699,254.500 454.031 C 236.900 453.362,218.000 453.078,212.500 453.399 C 198.746 454.202,171.777 458.271,152.000 462.526 C 142.925 464.479,134.600 465.829,133.500 465.527 C 130.912 464.816,126.532 458.095,128.270 457.503 C 128.947 457.272,132.425 456.585,136.000 455.975 C 139.575 455.366,145.956 453.996,150.180 452.930 C 178.624 445.756,193.174 444.252,235.500 444.110 C 255.300 444.044,277.350 444.452,284.500 445.016 M341.671 444.775 C 342.315 445.185,343.135 446.689,343.494 448.118 C 344.050 450.335,343.634 451.018,340.660 452.773 L 337.174 454.830 336.547 452.330 C 335.837 449.501,336.721 445.861,338.385 444.765 C 339.781 443.846,340.211 443.847,341.671 444.775 M114.768 459.069 C 125.165 461.851,126.636 462.705,130.800 468.378 C 134.193 473.000,134.253 473.213,131.941 472.444 C 130.598 471.998,122.557 470.011,114.071 468.028 C 105.584 466.046,98.485 463.954,98.294 463.381 C 97.654 461.461,102.057 457.000,104.591 457.000 C 105.936 457.000,110.516 457.931,114.768 459.069 M347.025 463.565 C 349.271 469.473,348.107 470.878,339.693 472.416 L 335.886 473.112 336.193 468.333 C 336.490 463.709,336.630 463.515,340.500 462.354 C 346.006 460.702,345.931 460.688,347.025 463.565 M299.000 464.863 C 331.656 465.658,332.329 465.827,332.810 473.395 L 333.121 478.274 329.810 477.588 C 322.639 476.102,309.999 475.016,300.000 475.026 C 294.225 475.033,275.325 474.511,258.000 473.867 C 230.150 472.832,224.298 472.894,207.500 474.395 C 181.824 476.689,145.132 482.716,142.613 485.052 C 142.107 485.521,142.875 488.075,144.395 490.982 C 147.031 496.023,147.036 496.071,144.783 494.640 C 143.527 493.842,138.424 491.806,133.442 490.116 C 125.355 487.371,116.927 485.766,97.500 483.271 C 92.367 482.611,91.455 482.182,91.187 480.302 C 91.015 479.092,91.397 477.127,92.036 475.934 C 93.103 473.939,93.694 473.820,99.348 474.456 C 105.498 475.149,133.502 480.342,137.750 481.579 C 140.405 482.351,140.603 481.306,138.398 478.158 C 137.517 476.900,136.958 475.709,137.156 475.511 C 138.085 474.582,176.448 467.614,192.500 465.459 C 211.897 462.854,215.626 462.833,299.000 464.863 M351.357 484.730 C 352.640 489.229,351.181 490.571,342.984 492.436 C 339.201 493.296,335.732 494.000,335.276 494.000 C 334.185 494.000,334.934 485.789,336.142 484.500 C 337.423 483.133,344.945 481.115,347.968 481.327 C 349.829 481.457,350.663 482.295,351.357 484.730 M282.000 484.518 C 302.625 485.309,321.413 486.356,323.750 486.844 C 326.087 487.332,328.000 487.551,328.000 487.331 C 328.000 487.110,328.900 487.411,330.000 488.000 C 332.306 489.234,332.612 492.781,330.644 495.472 C 329.363 497.224,328.539 497.262,315.894 496.154 C 292.487 494.104,235.713 492.882,217.242 494.030 C 198.543 495.193,179.915 497.170,163.631 499.722 L 152.763 501.425 150.881 499.102 C 147.575 495.018,148.404 493.428,154.750 491.681 C 161.347 489.865,175.371 487.756,195.500 485.552 C 221.186 482.739,232.241 482.607,282.000 484.518 M-0.000 498.346 C -0.000 502.036,9.868 512.000,13.523 512.000 C 16.026 512.000,15.876 511.764,11.418 508.692 C 8.777 506.872,5.128 503.223,3.308 500.582 C 0.339 496.273,-0.000 496.044,-0.000 498.346 M508.460 500.734 C 506.787 503.277,503.251 506.853,500.600 508.679 C 496.129 511.761,495.976 512.000,498.477 512.000 C 502.054 512.000,512.000 502.038,512.000 498.455 C 512.000 497.105,511.887 496.025,511.750 496.054 C 511.613 496.084,510.132 498.190,508.460 500.734 M104.000 501.059 C 104.000 501.641,103.550 501.840,103.000 501.500 C 101.536 500.595,101.777 502.570,103.284 503.820 C 105.017 505.259,107.224 503.748,106.427 501.670 C 105.718 499.824,104.000 499.391,104.000 501.059 M122.997 503.983 C 123.417 506.281,124.319 508.687,125.002 509.330 C 126.752 510.980,125.327 502.986,123.543 501.152 C 122.459 500.037,122.365 500.527,122.997 503.983 " stroke="none" fill="undefined" fill-rule="evenodd"/></svg>